<?xml version="1.0" encoding="utf-8" standalone="no"?>
<!DOCTYPE svg PUBLIC "-//W3C//DTD SVG 1.1//EN"
  "http://www.w3.org/Graphics/SVG/1.1/DTD/svg11.dtd">
<!-- Created with matplotlib (https://matplotlib.org/) -->
<svg height="720pt" version="1.1" viewBox="0 0 1080 720" width="1080pt" xmlns="http://www.w3.org/2000/svg" xmlns:xlink="http://www.w3.org/1999/xlink">
 <defs>
  <style type="text/css">
*{stroke-linecap:butt;stroke-linejoin:round;}
  </style>
 </defs>
 <g id="figure_1">
  <g id="patch_1">
   <path d="M 0 720 
L 1080 720 
L 1080 0 
L 0 0 
z
" style="fill:#ffffff;"/>
  </g>
  <g id="axes_1">
   <g id="patch_2">
    <path d="M 62.01875 613.588118 
L 261.905917 613.588118 
L 261.905917 36 
L 62.01875 36 
z
" style="fill:#ffffff;"/>
   </g>
   <g id="patch_3">
    <path clip-path="url(#p0afc58953e)" d="M 71.10453 613.588118 
L 107.447652 613.588118 
L 107.447652 118.512588 
L 71.10453 118.512588 
z
" style="fill:#808080;stroke:#000000;stroke-linejoin:miter;stroke-width:2;"/>
   </g>
   <g id="patch_4">
    <path clip-path="url(#p0afc58953e)" d="M 119.562025 613.588118 
L 155.905146 613.588118 
L 155.905146 283.537765 
L 119.562025 283.537765 
z
" style="fill:#808080;stroke:#000000;stroke-linejoin:miter;stroke-width:2;"/>
   </g>
   <g id="patch_5">
    <path clip-path="url(#p0afc58953e)" d="M 168.01952 613.588118 
L 204.362641 613.588118 
L 204.362641 201.025177 
L 168.01952 201.025177 
z
" style="fill:#808080;stroke:#000000;stroke-linejoin:miter;stroke-width:2;"/>
   </g>
   <g id="patch_6">
    <path clip-path="url(#p0afc58953e)" d="M 216.477015 613.588118 
L 252.820136 613.588118 
L 252.820136 283.537765 
L 216.477015 283.537765 
z
" style="fill:#808080;stroke:#000000;stroke-linejoin:miter;stroke-width:2;"/>
   </g>
   <g id="matplotlib.axis_1">
    <g id="xtick_1">
     <g id="line2d_1">
      <defs>
       <path d="M 0 0 
L 0 3.5 
" id="ma8a642e3fb" style="stroke:#000000;stroke-width:0.8;"/>
      </defs>
      <g>
       <use style="stroke:#000000;stroke-width:0.8;" x="89.276091" xlink:href="#ma8a642e3fb" y="613.588118"/>
      </g>
     </g>
     <g id="text_1">
      <!-- 125 cp/µl -->
      <defs>
       <path d="M 37.25 0 
L 28.46875 0 
L 28.46875 56 
Q 25.296875 52.984375 20.140625 49.953125 
Q 14.984375 46.921875 10.890625 45.40625 
L 10.890625 53.90625 
Q 18.265625 57.375 23.78125 62.296875 
Q 29.296875 67.234375 31.59375 71.875 
L 37.25 71.875 
z
" id="ArialMT-49"/>
       <path d="M 50.34375 8.453125 
L 50.34375 0 
L 3.03125 0 
Q 2.9375 3.171875 4.046875 6.109375 
Q 5.859375 10.9375 9.828125 15.625 
Q 13.8125 20.3125 21.34375 26.46875 
Q 33.015625 36.03125 37.109375 41.625 
Q 41.21875 47.21875 41.21875 52.203125 
Q 41.21875 57.421875 37.46875 61 
Q 33.734375 64.59375 27.734375 64.59375 
Q 21.390625 64.59375 17.578125 60.78125 
Q 13.765625 56.984375 13.71875 50.25 
L 4.6875 51.171875 
Q 5.609375 61.28125 11.65625 66.578125 
Q 17.71875 71.875 27.9375 71.875 
Q 38.234375 71.875 44.234375 66.15625 
Q 50.25 60.453125 50.25 52 
Q 50.25 47.703125 48.484375 43.546875 
Q 46.734375 39.40625 42.65625 34.8125 
Q 38.578125 30.21875 29.109375 22.21875 
Q 21.1875 15.578125 18.9375 13.203125 
Q 16.703125 10.84375 15.234375 8.453125 
z
" id="ArialMT-50"/>
       <path d="M 4.15625 18.75 
L 13.375 19.53125 
Q 14.40625 12.796875 18.140625 9.390625 
Q 21.875 6 27.15625 6 
Q 33.5 6 37.890625 10.78125 
Q 42.28125 15.578125 42.28125 23.484375 
Q 42.28125 31 38.0625 35.34375 
Q 33.84375 39.703125 27 39.703125 
Q 22.75 39.703125 19.328125 37.765625 
Q 15.921875 35.84375 13.96875 32.765625 
L 5.71875 33.84375 
L 12.640625 70.609375 
L 48.25 70.609375 
L 48.25 62.203125 
L 19.671875 62.203125 
L 15.828125 42.96875 
Q 22.265625 47.46875 29.34375 47.46875 
Q 38.71875 47.46875 45.15625 40.96875 
Q 51.609375 34.46875 51.609375 24.265625 
Q 51.609375 14.546875 45.953125 7.46875 
Q 39.0625 -1.21875 27.15625 -1.21875 
Q 17.390625 -1.21875 11.203125 4.25 
Q 5.03125 9.71875 4.15625 18.75 
z
" id="ArialMT-53"/>
       <path id="ArialMT-32"/>
       <path d="M 40.4375 19 
L 49.078125 17.875 
Q 47.65625 8.9375 41.8125 3.875 
Q 35.984375 -1.171875 27.484375 -1.171875 
Q 16.84375 -1.171875 10.375 5.78125 
Q 3.90625 12.75 3.90625 25.734375 
Q 3.90625 34.125 6.6875 40.421875 
Q 9.46875 46.734375 15.15625 49.875 
Q 20.84375 53.03125 27.546875 53.03125 
Q 35.984375 53.03125 41.359375 48.75 
Q 46.734375 44.484375 48.25 36.625 
L 39.703125 35.296875 
Q 38.484375 40.53125 35.375 43.15625 
Q 32.28125 45.796875 27.875 45.796875 
Q 21.234375 45.796875 17.078125 41.03125 
Q 12.9375 36.28125 12.9375 25.984375 
Q 12.9375 15.53125 16.9375 10.796875 
Q 20.953125 6.0625 27.390625 6.0625 
Q 32.5625 6.0625 36.03125 9.234375 
Q 39.5 12.40625 40.4375 19 
z
" id="ArialMT-99"/>
       <path d="M 6.59375 -19.875 
L 6.59375 51.859375 
L 14.59375 51.859375 
L 14.59375 45.125 
Q 17.4375 49.078125 21 51.046875 
Q 24.5625 53.03125 29.640625 53.03125 
Q 36.28125 53.03125 41.359375 49.609375 
Q 46.4375 46.1875 49.015625 39.953125 
Q 51.609375 33.734375 51.609375 26.3125 
Q 51.609375 18.359375 48.75 11.984375 
Q 45.90625 5.609375 40.453125 2.21875 
Q 35.015625 -1.171875 29 -1.171875 
Q 24.609375 -1.171875 21.109375 0.6875 
Q 17.625 2.546875 15.375 5.375 
L 15.375 -19.875 
z
M 14.546875 25.640625 
Q 14.546875 15.625 18.59375 10.84375 
Q 22.65625 6.0625 28.421875 6.0625 
Q 34.28125 6.0625 38.453125 11.015625 
Q 42.625 15.96875 42.625 26.375 
Q 42.625 36.28125 38.546875 41.203125 
Q 34.46875 46.140625 28.8125 46.140625 
Q 23.1875 46.140625 18.859375 40.890625 
Q 14.546875 35.640625 14.546875 25.640625 
z
" id="ArialMT-112"/>
       <path d="M 0 -1.21875 
L 20.75 72.796875 
L 27.78125 72.796875 
L 7.078125 -1.21875 
z
" id="ArialMT-47"/>
       <path d="M 49.703125 51.859375 
L 49.703125 0 
L 41.84375 0 
L 41.84375 6.15625 
Q 39.3125 2.25 36.8125 0.78125 
Q 33.40625 -1.21875 28.859375 -1.21875 
Q 24.8125 -1.21875 21.6875 0.390625 
Q 19.34375 1.609375 16.5 5.21875 
L 16.5 -19.875 
L 7.8125 -19.875 
L 7.8125 51.859375 
L 16.5 51.859375 
L 16.5 29.890625 
Q 16.5 17.921875 17.765625 14.375 
Q 19.046875 10.84375 21.890625 8.78125 
Q 24.75 6.734375 28.46875 6.734375 
Q 32.375 6.734375 35.453125 8.875 
Q 38.53125 11.03125 39.796875 14.421875 
Q 41.0625 17.828125 41.0625 29.734375 
L 41.0625 51.859375 
z
" id="ArialMT-181"/>
       <path d="M 6.390625 0 
L 6.390625 71.578125 
L 15.1875 71.578125 
L 15.1875 0 
z
" id="ArialMT-108"/>
      </defs>
      <g transform="translate(34.836382 681.763682)rotate(-45)scale(0.18 -0.18)">
       <use xlink:href="#ArialMT-49"/>
       <use x="55.615234" xlink:href="#ArialMT-50"/>
       <use x="111.230469" xlink:href="#ArialMT-53"/>
       <use x="166.845703" xlink:href="#ArialMT-32"/>
       <use x="194.628906" xlink:href="#ArialMT-99"/>
       <use x="244.628906" xlink:href="#ArialMT-112"/>
       <use x="300.244141" xlink:href="#ArialMT-47"/>
       <use x="328.027344" xlink:href="#ArialMT-181"/>
       <use x="385.644531" xlink:href="#ArialMT-108"/>
      </g>
     </g>
    </g>
    <g id="xtick_2">
     <g id="line2d_2">
      <g>
       <use style="stroke:#000000;stroke-width:0.8;" x="137.733586" xlink:href="#ma8a642e3fb" y="613.588118"/>
      </g>
     </g>
     <g id="text_2">
      <!-- 63 cp/µl -->
      <defs>
       <path d="M 49.75 54.046875 
L 41.015625 53.375 
Q 39.84375 58.546875 37.703125 60.890625 
Q 34.125 64.65625 28.90625 64.65625 
Q 24.703125 64.65625 21.53125 62.3125 
Q 17.390625 59.28125 14.984375 53.46875 
Q 12.59375 47.65625 12.5 36.921875 
Q 15.671875 41.75 20.265625 44.09375 
Q 24.859375 46.4375 29.890625 46.4375 
Q 38.671875 46.4375 44.84375 39.96875 
Q 51.03125 33.5 51.03125 23.25 
Q 51.03125 16.5 48.125 10.71875 
Q 45.21875 4.9375 40.140625 1.859375 
Q 35.0625 -1.21875 28.609375 -1.21875 
Q 17.625 -1.21875 10.6875 6.859375 
Q 3.765625 14.9375 3.765625 33.5 
Q 3.765625 54.25 11.421875 63.671875 
Q 18.109375 71.875 29.4375 71.875 
Q 37.890625 71.875 43.28125 67.140625 
Q 48.6875 62.40625 49.75 54.046875 
z
M 13.875 23.1875 
Q 13.875 18.65625 15.796875 14.5 
Q 17.71875 10.359375 21.1875 8.171875 
Q 24.65625 6 28.46875 6 
Q 34.03125 6 38.03125 10.484375 
Q 42.046875 14.984375 42.046875 22.703125 
Q 42.046875 30.125 38.078125 34.390625 
Q 34.125 38.671875 28.125 38.671875 
Q 22.171875 38.671875 18.015625 34.390625 
Q 13.875 30.125 13.875 23.1875 
z
" id="ArialMT-54"/>
       <path d="M 4.203125 18.890625 
L 12.984375 20.0625 
Q 14.5 12.59375 18.140625 9.296875 
Q 21.78125 6 27 6 
Q 33.203125 6 37.46875 10.296875 
Q 41.75 14.59375 41.75 20.953125 
Q 41.75 27 37.796875 30.921875 
Q 33.84375 34.859375 27.734375 34.859375 
Q 25.25 34.859375 21.53125 33.890625 
L 22.515625 41.609375 
Q 23.390625 41.5 23.921875 41.5 
Q 29.546875 41.5 34.03125 44.421875 
Q 38.53125 47.359375 38.53125 53.46875 
Q 38.53125 58.296875 35.25 61.46875 
Q 31.984375 64.65625 26.8125 64.65625 
Q 21.6875 64.65625 18.265625 61.421875 
Q 14.84375 58.203125 13.875 51.765625 
L 5.078125 53.328125 
Q 6.6875 62.15625 12.390625 67.015625 
Q 18.109375 71.875 26.609375 71.875 
Q 32.46875 71.875 37.390625 69.359375 
Q 42.328125 66.84375 44.9375 62.5 
Q 47.5625 58.15625 47.5625 53.265625 
Q 47.5625 48.640625 45.0625 44.828125 
Q 42.578125 41.015625 37.703125 38.765625 
Q 44.046875 37.3125 47.5625 32.6875 
Q 51.078125 28.078125 51.078125 21.140625 
Q 51.078125 11.765625 44.234375 5.25 
Q 37.40625 -1.265625 26.953125 -1.265625 
Q 17.53125 -1.265625 11.296875 4.34375 
Q 5.078125 9.96875 4.203125 18.890625 
z
" id="ArialMT-51"/>
      </defs>
      <g transform="translate(90.371795 674.685764)rotate(-45)scale(0.18 -0.18)">
       <use xlink:href="#ArialMT-54"/>
       <use x="55.615234" xlink:href="#ArialMT-51"/>
       <use x="111.230469" xlink:href="#ArialMT-32"/>
       <use x="139.013672" xlink:href="#ArialMT-99"/>
       <use x="189.013672" xlink:href="#ArialMT-112"/>
       <use x="244.628906" xlink:href="#ArialMT-47"/>
       <use x="272.412109" xlink:href="#ArialMT-181"/>
       <use x="330.029297" xlink:href="#ArialMT-108"/>
      </g>
     </g>
    </g>
    <g id="xtick_3">
     <g id="line2d_3">
      <g>
       <use style="stroke:#000000;stroke-width:0.8;" x="186.191081" xlink:href="#ma8a642e3fb" y="613.588118"/>
      </g>
     </g>
     <g id="text_3">
      <!-- 31 cp/µl -->
      <g transform="translate(138.82929 674.685764)rotate(-45)scale(0.18 -0.18)">
       <use xlink:href="#ArialMT-51"/>
       <use x="55.615234" xlink:href="#ArialMT-49"/>
       <use x="111.230469" xlink:href="#ArialMT-32"/>
       <use x="139.013672" xlink:href="#ArialMT-99"/>
       <use x="189.013672" xlink:href="#ArialMT-112"/>
       <use x="244.628906" xlink:href="#ArialMT-47"/>
       <use x="272.412109" xlink:href="#ArialMT-181"/>
       <use x="330.029297" xlink:href="#ArialMT-108"/>
      </g>
     </g>
    </g>
    <g id="xtick_4">
     <g id="line2d_4">
      <g>
       <use style="stroke:#000000;stroke-width:0.8;" x="234.648576" xlink:href="#ma8a642e3fb" y="613.588118"/>
      </g>
     </g>
     <g id="text_4">
      <!-- 16 cp/µl -->
      <g transform="translate(187.286785 674.685764)rotate(-45)scale(0.18 -0.18)">
       <use xlink:href="#ArialMT-49"/>
       <use x="55.615234" xlink:href="#ArialMT-54"/>
       <use x="111.230469" xlink:href="#ArialMT-32"/>
       <use x="139.013672" xlink:href="#ArialMT-99"/>
       <use x="189.013672" xlink:href="#ArialMT-112"/>
       <use x="244.628906" xlink:href="#ArialMT-47"/>
       <use x="272.412109" xlink:href="#ArialMT-181"/>
       <use x="330.029297" xlink:href="#ArialMT-108"/>
      </g>
     </g>
    </g>
    <g id="text_5">
     <!-- 14 min -->
     <defs>
      <path d="M 32.328125 0 
L 32.328125 17.140625 
L 1.265625 17.140625 
L 1.265625 25.203125 
L 33.9375 71.578125 
L 41.109375 71.578125 
L 41.109375 25.203125 
L 50.78125 25.203125 
L 50.78125 17.140625 
L 41.109375 17.140625 
L 41.109375 0 
z
M 32.328125 25.203125 
L 32.328125 57.46875 
L 9.90625 25.203125 
z
" id="ArialMT-52"/>
      <path d="M 6.59375 0 
L 6.59375 51.859375 
L 14.453125 51.859375 
L 14.453125 44.578125 
Q 16.890625 48.390625 20.9375 50.703125 
Q 25 53.03125 30.171875 53.03125 
Q 35.9375 53.03125 39.625 50.640625 
Q 43.3125 48.25 44.828125 43.953125 
Q 50.984375 53.03125 60.84375 53.03125 
Q 68.5625 53.03125 72.703125 48.75 
Q 76.859375 44.484375 76.859375 35.59375 
L 76.859375 0 
L 68.109375 0 
L 68.109375 32.671875 
Q 68.109375 37.9375 67.25 40.25 
Q 66.40625 42.578125 64.15625 43.984375 
Q 61.921875 45.40625 58.890625 45.40625 
Q 53.421875 45.40625 49.796875 41.765625 
Q 46.1875 38.140625 46.1875 30.125 
L 46.1875 0 
L 37.40625 0 
L 37.40625 33.6875 
Q 37.40625 39.546875 35.25 42.46875 
Q 33.109375 45.40625 28.21875 45.40625 
Q 24.515625 45.40625 21.359375 43.453125 
Q 18.21875 41.5 16.796875 37.734375 
Q 15.375 33.984375 15.375 26.90625 
L 15.375 0 
z
" id="ArialMT-109"/>
      <path d="M 6.640625 61.46875 
L 6.640625 71.578125 
L 15.4375 71.578125 
L 15.4375 61.46875 
z
M 6.640625 0 
L 6.640625 51.859375 
L 15.4375 51.859375 
L 15.4375 0 
z
" id="ArialMT-105"/>
      <path d="M 6.59375 0 
L 6.59375 51.859375 
L 14.5 51.859375 
L 14.5 44.484375 
Q 20.21875 53.03125 31 53.03125 
Q 35.6875 53.03125 39.625 51.34375 
Q 43.5625 49.65625 45.515625 46.921875 
Q 47.46875 44.1875 48.25 40.4375 
Q 48.734375 37.984375 48.734375 31.890625 
L 48.734375 0 
L 39.9375 0 
L 39.9375 31.546875 
Q 39.9375 36.921875 38.90625 39.578125 
Q 37.890625 42.234375 35.28125 43.8125 
Q 32.671875 45.40625 29.15625 45.40625 
Q 23.53125 45.40625 19.453125 41.84375 
Q 15.375 38.28125 15.375 28.328125 
L 15.375 0 
z
" id="ArialMT-110"/>
     </defs>
     <g transform="translate(128.948583 704.040544)scale(0.22 -0.22)">
      <use xlink:href="#ArialMT-49"/>
      <use x="55.615234" xlink:href="#ArialMT-52"/>
      <use x="111.230469" xlink:href="#ArialMT-32"/>
      <use x="139.013672" xlink:href="#ArialMT-109"/>
      <use x="222.314453" xlink:href="#ArialMT-105"/>
      <use x="244.53125" xlink:href="#ArialMT-110"/>
     </g>
    </g>
   </g>
   <g id="matplotlib.axis_2">
    <g id="ytick_1">
     <g id="line2d_5">
      <defs>
       <path d="M 0 0 
L -3.5 0 
" id="m3748e980dc" style="stroke:#000000;stroke-width:0.8;"/>
      </defs>
      <g>
       <use style="stroke:#000000;stroke-width:0.8;" x="62.01875" xlink:href="#m3748e980dc" y="613.588118"/>
      </g>
     </g>
     <g id="text_6">
      <!-- 0 -->
      <defs>
       <path d="M 4.15625 35.296875 
Q 4.15625 48 6.765625 55.734375 
Q 9.375 63.484375 14.515625 67.671875 
Q 19.671875 71.875 27.484375 71.875 
Q 33.25 71.875 37.59375 69.546875 
Q 41.9375 67.234375 44.765625 62.859375 
Q 47.609375 58.5 49.21875 52.21875 
Q 50.828125 45.953125 50.828125 35.296875 
Q 50.828125 22.703125 48.234375 14.96875 
Q 45.65625 7.234375 40.5 3 
Q 35.359375 -1.21875 27.484375 -1.21875 
Q 17.140625 -1.21875 11.234375 6.203125 
Q 4.15625 15.140625 4.15625 35.296875 
z
M 13.1875 35.296875 
Q 13.1875 17.671875 17.3125 11.828125 
Q 21.4375 6 27.484375 6 
Q 33.546875 6 37.671875 11.859375 
Q 41.796875 17.71875 41.796875 35.296875 
Q 41.796875 52.984375 37.671875 58.78125 
Q 33.546875 64.59375 27.390625 64.59375 
Q 21.34375 64.59375 17.71875 59.46875 
Q 13.1875 52.9375 13.1875 35.296875 
z
" id="ArialMT-48"/>
      </defs>
      <g transform="translate(45.009062 620.030149)scale(0.18 -0.18)">
       <use xlink:href="#ArialMT-48"/>
      </g>
     </g>
    </g>
    <g id="ytick_2">
     <g id="line2d_6">
      <g>
       <use style="stroke:#000000;stroke-width:0.8;" x="62.01875" xlink:href="#m3748e980dc" y="586.083922"/>
      </g>
     </g>
     <g id="text_7">
      <!-- 1 -->
      <g transform="translate(45.009062 592.525953)scale(0.18 -0.18)">
       <use xlink:href="#ArialMT-49"/>
      </g>
     </g>
    </g>
    <g id="ytick_3">
     <g id="line2d_7">
      <g>
       <use style="stroke:#000000;stroke-width:0.8;" x="62.01875" xlink:href="#m3748e980dc" y="558.579726"/>
      </g>
     </g>
     <g id="text_8">
      <!-- 2 -->
      <g transform="translate(45.009062 565.021757)scale(0.18 -0.18)">
       <use xlink:href="#ArialMT-50"/>
      </g>
     </g>
    </g>
    <g id="ytick_4">
     <g id="line2d_8">
      <g>
       <use style="stroke:#000000;stroke-width:0.8;" x="62.01875" xlink:href="#m3748e980dc" y="531.07553"/>
      </g>
     </g>
     <g id="text_9">
      <!-- 3 -->
      <g transform="translate(45.009062 537.517561)scale(0.18 -0.18)">
       <use xlink:href="#ArialMT-51"/>
      </g>
     </g>
    </g>
    <g id="ytick_5">
     <g id="line2d_9">
      <g>
       <use style="stroke:#000000;stroke-width:0.8;" x="62.01875" xlink:href="#m3748e980dc" y="503.571334"/>
      </g>
     </g>
     <g id="text_10">
      <!-- 4 -->
      <g transform="translate(45.009062 510.013365)scale(0.18 -0.18)">
       <use xlink:href="#ArialMT-52"/>
      </g>
     </g>
    </g>
    <g id="ytick_6">
     <g id="line2d_10">
      <g>
       <use style="stroke:#000000;stroke-width:0.8;" x="62.01875" xlink:href="#m3748e980dc" y="476.067137"/>
      </g>
     </g>
     <g id="text_11">
      <!-- 5 -->
      <g transform="translate(45.009062 482.509169)scale(0.18 -0.18)">
       <use xlink:href="#ArialMT-53"/>
      </g>
     </g>
    </g>
    <g id="ytick_7">
     <g id="line2d_11">
      <g>
       <use style="stroke:#000000;stroke-width:0.8;" x="62.01875" xlink:href="#m3748e980dc" y="448.562941"/>
      </g>
     </g>
     <g id="text_12">
      <!-- 6 -->
      <g transform="translate(45.009062 455.004973)scale(0.18 -0.18)">
       <use xlink:href="#ArialMT-54"/>
      </g>
     </g>
    </g>
    <g id="ytick_8">
     <g id="line2d_12">
      <g>
       <use style="stroke:#000000;stroke-width:0.8;" x="62.01875" xlink:href="#m3748e980dc" y="421.058745"/>
      </g>
     </g>
     <g id="text_13">
      <!-- 7 -->
      <defs>
       <path d="M 4.734375 62.203125 
L 4.734375 70.65625 
L 51.078125 70.65625 
L 51.078125 63.8125 
Q 44.234375 56.546875 37.515625 44.484375 
Q 30.8125 32.421875 27.15625 19.671875 
Q 24.515625 10.6875 23.78125 0 
L 14.75 0 
Q 14.890625 8.453125 18.0625 20.40625 
Q 21.234375 32.375 27.171875 43.484375 
Q 33.109375 54.59375 39.796875 62.203125 
z
" id="ArialMT-55"/>
      </defs>
      <g transform="translate(45.009062 427.500776)scale(0.18 -0.18)">
       <use xlink:href="#ArialMT-55"/>
      </g>
     </g>
    </g>
    <g id="ytick_9">
     <g id="line2d_13">
      <g>
       <use style="stroke:#000000;stroke-width:0.8;" x="62.01875" xlink:href="#m3748e980dc" y="393.554549"/>
      </g>
     </g>
     <g id="text_14">
      <!-- 8 -->
      <defs>
       <path d="M 17.671875 38.8125 
Q 12.203125 40.828125 9.5625 44.53125 
Q 6.9375 48.25 6.9375 53.421875 
Q 6.9375 61.234375 12.546875 66.546875 
Q 18.171875 71.875 27.484375 71.875 
Q 36.859375 71.875 42.578125 66.421875 
Q 48.296875 60.984375 48.296875 53.171875 
Q 48.296875 48.1875 45.671875 44.5 
Q 43.0625 40.828125 37.75 38.8125 
Q 44.34375 36.671875 47.78125 31.875 
Q 51.21875 27.09375 51.21875 20.453125 
Q 51.21875 11.28125 44.71875 5.03125 
Q 38.234375 -1.21875 27.640625 -1.21875 
Q 17.046875 -1.21875 10.546875 5.046875 
Q 4.046875 11.328125 4.046875 20.703125 
Q 4.046875 27.6875 7.59375 32.390625 
Q 11.140625 37.109375 17.671875 38.8125 
z
M 15.921875 53.71875 
Q 15.921875 48.640625 19.1875 45.40625 
Q 22.46875 42.1875 27.6875 42.1875 
Q 32.765625 42.1875 36.015625 45.375 
Q 39.265625 48.578125 39.265625 53.21875 
Q 39.265625 58.0625 35.90625 61.359375 
Q 32.5625 64.65625 27.59375 64.65625 
Q 22.5625 64.65625 19.234375 61.421875 
Q 15.921875 58.203125 15.921875 53.71875 
z
M 13.09375 20.65625 
Q 13.09375 16.890625 14.875 13.375 
Q 16.65625 9.859375 20.171875 7.921875 
Q 23.6875 6 27.734375 6 
Q 34.03125 6 38.125 10.046875 
Q 42.234375 14.109375 42.234375 20.359375 
Q 42.234375 26.703125 38.015625 30.859375 
Q 33.796875 35.015625 27.4375 35.015625 
Q 21.234375 35.015625 17.15625 30.90625 
Q 13.09375 26.8125 13.09375 20.65625 
z
" id="ArialMT-56"/>
      </defs>
      <g transform="translate(45.009062 399.99658)scale(0.18 -0.18)">
       <use xlink:href="#ArialMT-56"/>
      </g>
     </g>
    </g>
    <g id="ytick_10">
     <g id="line2d_14">
      <g>
       <use style="stroke:#000000;stroke-width:0.8;" x="62.01875" xlink:href="#m3748e980dc" y="366.050353"/>
      </g>
     </g>
     <g id="text_15">
      <!-- 9 -->
      <defs>
       <path d="M 5.46875 16.546875 
L 13.921875 17.328125 
Q 14.984375 11.375 18.015625 8.6875 
Q 21.046875 6 25.78125 6 
Q 29.828125 6 32.875 7.859375 
Q 35.9375 9.71875 37.890625 12.8125 
Q 39.84375 15.921875 41.15625 21.1875 
Q 42.484375 26.46875 42.484375 31.9375 
Q 42.484375 32.515625 42.4375 33.6875 
Q 39.796875 29.5 35.234375 26.875 
Q 30.671875 24.265625 25.34375 24.265625 
Q 16.453125 24.265625 10.296875 30.703125 
Q 4.15625 37.15625 4.15625 47.703125 
Q 4.15625 58.59375 10.578125 65.234375 
Q 17 71.875 26.65625 71.875 
Q 33.640625 71.875 39.421875 68.109375 
Q 45.21875 64.359375 48.21875 57.390625 
Q 51.21875 50.4375 51.21875 37.25 
Q 51.21875 23.53125 48.234375 15.40625 
Q 45.265625 7.28125 39.375 3.03125 
Q 33.5 -1.21875 25.59375 -1.21875 
Q 17.1875 -1.21875 11.859375 3.4375 
Q 6.546875 8.109375 5.46875 16.546875 
z
M 41.453125 48.140625 
Q 41.453125 55.71875 37.421875 60.15625 
Q 33.40625 64.59375 27.734375 64.59375 
Q 21.875 64.59375 17.53125 59.8125 
Q 13.1875 55.03125 13.1875 47.40625 
Q 13.1875 40.578125 17.3125 36.296875 
Q 21.4375 32.03125 27.484375 32.03125 
Q 33.59375 32.03125 37.515625 36.296875 
Q 41.453125 40.578125 41.453125 48.140625 
z
" id="ArialMT-57"/>
      </defs>
      <g transform="translate(45.009062 372.492384)scale(0.18 -0.18)">
       <use xlink:href="#ArialMT-57"/>
      </g>
     </g>
    </g>
    <g id="ytick_11">
     <g id="line2d_15">
      <g>
       <use style="stroke:#000000;stroke-width:0.8;" x="62.01875" xlink:href="#m3748e980dc" y="338.546157"/>
      </g>
     </g>
     <g id="text_16">
      <!-- 10 -->
      <g transform="translate(34.999375 344.988188)scale(0.18 -0.18)">
       <use xlink:href="#ArialMT-49"/>
       <use x="55.615234" xlink:href="#ArialMT-48"/>
      </g>
     </g>
    </g>
    <g id="ytick_12">
     <g id="line2d_16">
      <g>
       <use style="stroke:#000000;stroke-width:0.8;" x="62.01875" xlink:href="#m3748e980dc" y="311.041961"/>
      </g>
     </g>
     <g id="text_17">
      <!-- 11 -->
      <g transform="translate(35.019062 317.483992)scale(0.18 -0.18)">
       <use xlink:href="#ArialMT-49"/>
       <use x="55.505859" xlink:href="#ArialMT-49"/>
      </g>
     </g>
    </g>
    <g id="ytick_13">
     <g id="line2d_17">
      <g>
       <use style="stroke:#000000;stroke-width:0.8;" x="62.01875" xlink:href="#m3748e980dc" y="283.537765"/>
      </g>
     </g>
     <g id="text_18">
      <!-- 12 -->
      <g transform="translate(34.999375 289.979796)scale(0.18 -0.18)">
       <use xlink:href="#ArialMT-49"/>
       <use x="55.615234" xlink:href="#ArialMT-50"/>
      </g>
     </g>
    </g>
    <g id="ytick_14">
     <g id="line2d_18">
      <g>
       <use style="stroke:#000000;stroke-width:0.8;" x="62.01875" xlink:href="#m3748e980dc" y="256.033569"/>
      </g>
     </g>
     <g id="text_19">
      <!-- 13 -->
      <g transform="translate(34.999375 262.4756)scale(0.18 -0.18)">
       <use xlink:href="#ArialMT-49"/>
       <use x="55.615234" xlink:href="#ArialMT-51"/>
      </g>
     </g>
    </g>
    <g id="ytick_15">
     <g id="line2d_19">
      <g>
       <use style="stroke:#000000;stroke-width:0.8;" x="62.01875" xlink:href="#m3748e980dc" y="228.529373"/>
      </g>
     </g>
     <g id="text_20">
      <!-- 14 -->
      <g transform="translate(34.999375 234.971404)scale(0.18 -0.18)">
       <use xlink:href="#ArialMT-49"/>
       <use x="55.615234" xlink:href="#ArialMT-52"/>
      </g>
     </g>
    </g>
    <g id="ytick_16">
     <g id="line2d_20">
      <g>
       <use style="stroke:#000000;stroke-width:0.8;" x="62.01875" xlink:href="#m3748e980dc" y="201.025177"/>
      </g>
     </g>
     <g id="text_21">
      <!-- 15 -->
      <g transform="translate(34.999375 207.467208)scale(0.18 -0.18)">
       <use xlink:href="#ArialMT-49"/>
       <use x="55.615234" xlink:href="#ArialMT-53"/>
      </g>
     </g>
    </g>
    <g id="ytick_17">
     <g id="line2d_21">
      <g>
       <use style="stroke:#000000;stroke-width:0.8;" x="62.01875" xlink:href="#m3748e980dc" y="173.52098"/>
      </g>
     </g>
     <g id="text_22">
      <!-- 16 -->
      <g transform="translate(34.999375 179.963012)scale(0.18 -0.18)">
       <use xlink:href="#ArialMT-49"/>
       <use x="55.615234" xlink:href="#ArialMT-54"/>
      </g>
     </g>
    </g>
    <g id="ytick_18">
     <g id="line2d_22">
      <g>
       <use style="stroke:#000000;stroke-width:0.8;" x="62.01875" xlink:href="#m3748e980dc" y="146.016784"/>
      </g>
     </g>
     <g id="text_23">
      <!-- 17 -->
      <g transform="translate(34.999375 152.458816)scale(0.18 -0.18)">
       <use xlink:href="#ArialMT-49"/>
       <use x="55.615234" xlink:href="#ArialMT-55"/>
      </g>
     </g>
    </g>
    <g id="ytick_19">
     <g id="line2d_23">
      <g>
       <use style="stroke:#000000;stroke-width:0.8;" x="62.01875" xlink:href="#m3748e980dc" y="118.512588"/>
      </g>
     </g>
     <g id="text_24">
      <!-- 18 -->
      <g transform="translate(34.999375 124.95462)scale(0.18 -0.18)">
       <use xlink:href="#ArialMT-49"/>
       <use x="55.615234" xlink:href="#ArialMT-56"/>
      </g>
     </g>
    </g>
    <g id="ytick_20">
     <g id="line2d_24">
      <g>
       <use style="stroke:#000000;stroke-width:0.8;" x="62.01875" xlink:href="#m3748e980dc" y="91.008392"/>
      </g>
     </g>
     <g id="text_25">
      <!-- 19 -->
      <g transform="translate(34.999375 97.450423)scale(0.18 -0.18)">
       <use xlink:href="#ArialMT-49"/>
       <use x="55.615234" xlink:href="#ArialMT-57"/>
      </g>
     </g>
    </g>
    <g id="ytick_21">
     <g id="line2d_25">
      <g>
       <use style="stroke:#000000;stroke-width:0.8;" x="62.01875" xlink:href="#m3748e980dc" y="63.504196"/>
      </g>
     </g>
     <g id="text_26">
      <!-- 20 -->
      <g transform="translate(34.999375 69.946227)scale(0.18 -0.18)">
       <use xlink:href="#ArialMT-50"/>
       <use x="55.615234" xlink:href="#ArialMT-48"/>
      </g>
     </g>
    </g>
    <g id="text_27">
     <!-- Number detected (out of 20) -->
     <defs>
      <path d="M 7.625 0 
L 7.625 71.578125 
L 17.328125 71.578125 
L 54.9375 15.375 
L 54.9375 71.578125 
L 64.015625 71.578125 
L 64.015625 0 
L 54.296875 0 
L 16.703125 56.25 
L 16.703125 0 
z
" id="ArialMT-78"/>
      <path d="M 40.578125 0 
L 40.578125 7.625 
Q 34.515625 -1.171875 24.125 -1.171875 
Q 19.53125 -1.171875 15.546875 0.578125 
Q 11.578125 2.34375 9.640625 5 
Q 7.71875 7.671875 6.9375 11.53125 
Q 6.390625 14.109375 6.390625 19.734375 
L 6.390625 51.859375 
L 15.1875 51.859375 
L 15.1875 23.09375 
Q 15.1875 16.21875 15.71875 13.8125 
Q 16.546875 10.359375 19.234375 8.375 
Q 21.921875 6.390625 25.875 6.390625 
Q 29.828125 6.390625 33.296875 8.421875 
Q 36.765625 10.453125 38.203125 13.9375 
Q 39.65625 17.4375 39.65625 24.078125 
L 39.65625 51.859375 
L 48.4375 51.859375 
L 48.4375 0 
z
" id="ArialMT-117"/>
      <path d="M 14.703125 0 
L 6.546875 0 
L 6.546875 71.578125 
L 15.328125 71.578125 
L 15.328125 46.046875 
Q 20.90625 53.03125 29.546875 53.03125 
Q 34.328125 53.03125 38.59375 51.09375 
Q 42.875 49.171875 45.625 45.671875 
Q 48.390625 42.1875 49.953125 37.25 
Q 51.515625 32.328125 51.515625 26.703125 
Q 51.515625 13.375 44.921875 6.09375 
Q 38.328125 -1.171875 29.109375 -1.171875 
Q 19.921875 -1.171875 14.703125 6.5 
z
M 14.59375 26.3125 
Q 14.59375 17 17.140625 12.84375 
Q 21.296875 6.0625 28.375 6.0625 
Q 34.125 6.0625 38.328125 11.0625 
Q 42.53125 16.0625 42.53125 25.984375 
Q 42.53125 36.140625 38.5 40.96875 
Q 34.46875 45.796875 28.765625 45.796875 
Q 23 45.796875 18.796875 40.796875 
Q 14.59375 35.796875 14.59375 26.3125 
z
" id="ArialMT-98"/>
      <path d="M 42.09375 16.703125 
L 51.171875 15.578125 
Q 49.03125 7.625 43.21875 3.21875 
Q 37.40625 -1.171875 28.375 -1.171875 
Q 17 -1.171875 10.328125 5.828125 
Q 3.65625 12.84375 3.65625 25.484375 
Q 3.65625 38.578125 10.390625 45.796875 
Q 17.140625 53.03125 27.875 53.03125 
Q 38.28125 53.03125 44.875 45.953125 
Q 51.46875 38.875 51.46875 26.03125 
Q 51.46875 25.25 51.421875 23.6875 
L 12.75 23.6875 
Q 13.234375 15.140625 17.578125 10.59375 
Q 21.921875 6.0625 28.421875 6.0625 
Q 33.25 6.0625 36.671875 8.59375 
Q 40.09375 11.140625 42.09375 16.703125 
z
M 13.234375 30.90625 
L 42.1875 30.90625 
Q 41.609375 37.453125 38.875 40.71875 
Q 34.671875 45.796875 27.984375 45.796875 
Q 21.921875 45.796875 17.796875 41.75 
Q 13.671875 37.703125 13.234375 30.90625 
z
" id="ArialMT-101"/>
      <path d="M 6.5 0 
L 6.5 51.859375 
L 14.40625 51.859375 
L 14.40625 44 
Q 17.4375 49.515625 20 51.265625 
Q 22.5625 53.03125 25.640625 53.03125 
Q 30.078125 53.03125 34.671875 50.203125 
L 31.640625 42.046875 
Q 28.421875 43.953125 25.203125 43.953125 
Q 22.3125 43.953125 20.015625 42.21875 
Q 17.71875 40.484375 16.75 37.40625 
Q 15.28125 32.71875 15.28125 27.15625 
L 15.28125 0 
z
" id="ArialMT-114"/>
      <path d="M 40.234375 0 
L 40.234375 6.546875 
Q 35.296875 -1.171875 25.734375 -1.171875 
Q 19.53125 -1.171875 14.328125 2.25 
Q 9.125 5.671875 6.265625 11.796875 
Q 3.421875 17.921875 3.421875 25.875 
Q 3.421875 33.640625 6 39.96875 
Q 8.59375 46.296875 13.765625 49.65625 
Q 18.953125 53.03125 25.34375 53.03125 
Q 30.03125 53.03125 33.6875 51.046875 
Q 37.359375 49.078125 39.65625 45.90625 
L 39.65625 71.578125 
L 48.390625 71.578125 
L 48.390625 0 
z
M 12.453125 25.875 
Q 12.453125 15.921875 16.640625 10.984375 
Q 20.84375 6.0625 26.5625 6.0625 
Q 32.328125 6.0625 36.34375 10.765625 
Q 40.375 15.484375 40.375 25.140625 
Q 40.375 35.796875 36.265625 40.765625 
Q 32.171875 45.75 26.171875 45.75 
Q 20.3125 45.75 16.375 40.96875 
Q 12.453125 36.1875 12.453125 25.875 
z
" id="ArialMT-100"/>
      <path d="M 25.78125 7.859375 
L 27.046875 0.09375 
Q 23.34375 -0.6875 20.40625 -0.6875 
Q 15.625 -0.6875 12.984375 0.828125 
Q 10.359375 2.34375 9.28125 4.8125 
Q 8.203125 7.28125 8.203125 15.1875 
L 8.203125 45.015625 
L 1.765625 45.015625 
L 1.765625 51.859375 
L 8.203125 51.859375 
L 8.203125 64.703125 
L 16.9375 69.96875 
L 16.9375 51.859375 
L 25.78125 51.859375 
L 25.78125 45.015625 
L 16.9375 45.015625 
L 16.9375 14.703125 
Q 16.9375 10.9375 17.40625 9.859375 
Q 17.875 8.796875 18.921875 8.15625 
Q 19.96875 7.515625 21.921875 7.515625 
Q 23.390625 7.515625 25.78125 7.859375 
z
" id="ArialMT-116"/>
      <path d="M 23.390625 -21.046875 
Q 16.109375 -11.859375 11.078125 0.4375 
Q 6.0625 12.75 6.0625 25.921875 
Q 6.0625 37.546875 9.8125 48.1875 
Q 14.203125 60.546875 23.390625 72.796875 
L 29.6875 72.796875 
Q 23.78125 62.640625 21.875 58.296875 
Q 18.890625 51.5625 17.1875 44.234375 
Q 15.09375 35.109375 15.09375 25.875 
Q 15.09375 2.390625 29.6875 -21.046875 
z
" id="ArialMT-40"/>
      <path d="M 3.328125 25.921875 
Q 3.328125 40.328125 11.328125 47.265625 
Q 18.015625 53.03125 27.640625 53.03125 
Q 38.328125 53.03125 45.109375 46.015625 
Q 51.90625 39.015625 51.90625 26.65625 
Q 51.90625 16.65625 48.90625 10.90625 
Q 45.90625 5.171875 40.15625 2 
Q 34.421875 -1.171875 27.640625 -1.171875 
Q 16.75 -1.171875 10.03125 5.8125 
Q 3.328125 12.796875 3.328125 25.921875 
z
M 12.359375 25.921875 
Q 12.359375 15.96875 16.703125 11.015625 
Q 21.046875 6.0625 27.640625 6.0625 
Q 34.1875 6.0625 38.53125 11.03125 
Q 42.875 16.015625 42.875 26.21875 
Q 42.875 35.84375 38.5 40.796875 
Q 34.125 45.75 27.640625 45.75 
Q 21.046875 45.75 16.703125 40.8125 
Q 12.359375 35.890625 12.359375 25.921875 
z
" id="ArialMT-111"/>
      <path d="M 8.6875 0 
L 8.6875 45.015625 
L 0.921875 45.015625 
L 0.921875 51.859375 
L 8.6875 51.859375 
L 8.6875 57.375 
Q 8.6875 62.59375 9.625 65.140625 
Q 10.890625 68.5625 14.078125 70.671875 
Q 17.28125 72.796875 23.046875 72.796875 
Q 26.765625 72.796875 31.25 71.921875 
L 29.9375 64.265625 
Q 27.203125 64.75 24.75 64.75 
Q 20.75 64.75 19.09375 63.03125 
Q 17.4375 61.328125 17.4375 56.640625 
L 17.4375 51.859375 
L 27.546875 51.859375 
L 27.546875 45.015625 
L 17.4375 45.015625 
L 17.4375 0 
z
" id="ArialMT-102"/>
      <path d="M 12.359375 -21.046875 
L 6.0625 -21.046875 
Q 20.65625 2.390625 20.65625 25.875 
Q 20.65625 35.0625 18.5625 44.09375 
Q 16.890625 51.421875 13.921875 58.15625 
Q 12.015625 62.546875 6.0625 72.796875 
L 12.359375 72.796875 
Q 21.53125 60.546875 25.921875 48.1875 
Q 29.6875 37.546875 29.6875 25.921875 
Q 29.6875 12.75 24.625 0.4375 
Q 19.578125 -11.859375 12.359375 -21.046875 
z
" id="ArialMT-41"/>
     </defs>
     <g transform="translate(26.369062 462.357653)rotate(-90)scale(0.22 -0.22)">
      <use xlink:href="#ArialMT-78"/>
      <use x="72.216797" xlink:href="#ArialMT-117"/>
      <use x="127.832031" xlink:href="#ArialMT-109"/>
      <use x="211.132812" xlink:href="#ArialMT-98"/>
      <use x="266.748047" xlink:href="#ArialMT-101"/>
      <use x="322.363281" xlink:href="#ArialMT-114"/>
      <use x="355.664062" xlink:href="#ArialMT-32"/>
      <use x="383.447266" xlink:href="#ArialMT-100"/>
      <use x="439.0625" xlink:href="#ArialMT-101"/>
      <use x="494.677734" xlink:href="#ArialMT-116"/>
      <use x="522.460938" xlink:href="#ArialMT-101"/>
      <use x="578.076172" xlink:href="#ArialMT-99"/>
      <use x="628.076172" xlink:href="#ArialMT-116"/>
      <use x="655.859375" xlink:href="#ArialMT-101"/>
      <use x="711.474609" xlink:href="#ArialMT-100"/>
      <use x="767.089844" xlink:href="#ArialMT-32"/>
      <use x="794.873047" xlink:href="#ArialMT-40"/>
      <use x="828.173828" xlink:href="#ArialMT-111"/>
      <use x="883.789062" xlink:href="#ArialMT-117"/>
      <use x="939.404297" xlink:href="#ArialMT-116"/>
      <use x="967.1875" xlink:href="#ArialMT-32"/>
      <use x="994.970703" xlink:href="#ArialMT-111"/>
      <use x="1050.585938" xlink:href="#ArialMT-102"/>
      <use x="1078.369141" xlink:href="#ArialMT-32"/>
      <use x="1106.152344" xlink:href="#ArialMT-50"/>
      <use x="1161.767578" xlink:href="#ArialMT-48"/>
      <use x="1217.382812" xlink:href="#ArialMT-41"/>
     </g>
    </g>
   </g>
   <g id="line2d_26">
    <path clip-path="url(#p0afc58953e)" d="M 62.01875 613.588118 
L 261.905917 613.588118 
" style="fill:none;stroke:#000000;stroke-linecap:square;stroke-width:1.5;"/>
   </g>
   <g id="line2d_27">
    <path clip-path="url(#p0afc58953e)" d="M 62.01875 91.008392 
L 261.905917 91.008392 
" style="fill:none;stroke:#000000;stroke-dasharray:5.55,2.4;stroke-dashoffset:0;stroke-opacity:0.5;stroke-width:1.5;"/>
   </g>
   <g id="patch_7">
    <path d="M 62.01875 613.588118 
L 62.01875 36 
" style="fill:none;stroke:#000000;stroke-linecap:square;stroke-linejoin:miter;stroke-width:0.8;"/>
   </g>
   <g id="patch_8">
    <path d="M 261.905917 613.588118 
L 261.905917 36 
" style="fill:none;stroke:#000000;stroke-linecap:square;stroke-linejoin:miter;stroke-width:0.8;"/>
   </g>
   <g id="patch_9">
    <path d="M 62.01875 613.588118 
L 261.905917 613.588118 
" style="fill:none;stroke:#000000;stroke-linecap:square;stroke-linejoin:miter;stroke-width:0.8;"/>
   </g>
   <g id="patch_10">
    <path d="M 62.01875 36 
L 261.905917 36 
" style="fill:none;stroke:#000000;stroke-linecap:square;stroke-linejoin:miter;stroke-width:0.8;"/>
   </g>
  </g>
  <g id="axes_2">
   <g id="patch_11">
    <path d="M 312.505546 613.588118 
L 512.392713 613.588118 
L 512.392713 36 
L 312.505546 36 
z
" style="fill:#ffffff;"/>
   </g>
   <g id="patch_12">
    <path clip-path="url(#p523c3f92e9)" d="M 321.591326 613.588118 
L 357.934447 613.588118 
L 357.934447 91.008392 
L 321.591326 91.008392 
z
" style="fill:#808080;stroke:#000000;stroke-linejoin:miter;stroke-width:2;"/>
   </g>
   <g id="patch_13">
    <path clip-path="url(#p523c3f92e9)" d="M 370.048821 613.588118 
L 406.391942 613.588118 
L 406.391942 201.025177 
L 370.048821 201.025177 
z
" style="fill:#808080;stroke:#000000;stroke-linejoin:miter;stroke-width:2;"/>
   </g>
   <g id="patch_14">
    <path clip-path="url(#p523c3f92e9)" d="M 418.506316 613.588118 
L 454.849437 613.588118 
L 454.849437 173.52098 
L 418.506316 173.52098 
z
" style="fill:#808080;stroke:#000000;stroke-linejoin:miter;stroke-width:2;"/>
   </g>
   <g id="patch_15">
    <path clip-path="url(#p523c3f92e9)" d="M 466.963811 613.588118 
L 503.306932 613.588118 
L 503.306932 256.033569 
L 466.963811 256.033569 
z
" style="fill:#808080;stroke:#000000;stroke-linejoin:miter;stroke-width:2;"/>
   </g>
   <g id="matplotlib.axis_3">
    <g id="xtick_5">
     <g id="line2d_28">
      <g>
       <use style="stroke:#000000;stroke-width:0.8;" x="339.762887" xlink:href="#ma8a642e3fb" y="613.588118"/>
      </g>
     </g>
     <g id="text_28">
      <!-- 125 cp/µl -->
      <g transform="translate(285.323178 681.763682)rotate(-45)scale(0.18 -0.18)">
       <use xlink:href="#ArialMT-49"/>
       <use x="55.615234" xlink:href="#ArialMT-50"/>
       <use x="111.230469" xlink:href="#ArialMT-53"/>
       <use x="166.845703" xlink:href="#ArialMT-32"/>
       <use x="194.628906" xlink:href="#ArialMT-99"/>
       <use x="244.628906" xlink:href="#ArialMT-112"/>
       <use x="300.244141" xlink:href="#ArialMT-47"/>
       <use x="328.027344" xlink:href="#ArialMT-181"/>
       <use x="385.644531" xlink:href="#ArialMT-108"/>
      </g>
     </g>
    </g>
    <g id="xtick_6">
     <g id="line2d_29">
      <g>
       <use style="stroke:#000000;stroke-width:0.8;" x="388.220382" xlink:href="#ma8a642e3fb" y="613.588118"/>
      </g>
     </g>
     <g id="text_29">
      <!-- 63 cp/µl -->
      <g transform="translate(340.858591 674.685764)rotate(-45)scale(0.18 -0.18)">
       <use xlink:href="#ArialMT-54"/>
       <use x="55.615234" xlink:href="#ArialMT-51"/>
       <use x="111.230469" xlink:href="#ArialMT-32"/>
       <use x="139.013672" xlink:href="#ArialMT-99"/>
       <use x="189.013672" xlink:href="#ArialMT-112"/>
       <use x="244.628906" xlink:href="#ArialMT-47"/>
       <use x="272.412109" xlink:href="#ArialMT-181"/>
       <use x="330.029297" xlink:href="#ArialMT-108"/>
      </g>
     </g>
    </g>
    <g id="xtick_7">
     <g id="line2d_30">
      <g>
       <use style="stroke:#000000;stroke-width:0.8;" x="436.677877" xlink:href="#ma8a642e3fb" y="613.588118"/>
      </g>
     </g>
     <g id="text_30">
      <!-- 31 cp/µl -->
      <g transform="translate(389.316085 674.685764)rotate(-45)scale(0.18 -0.18)">
       <use xlink:href="#ArialMT-51"/>
       <use x="55.615234" xlink:href="#ArialMT-49"/>
       <use x="111.230469" xlink:href="#ArialMT-32"/>
       <use x="139.013672" xlink:href="#ArialMT-99"/>
       <use x="189.013672" xlink:href="#ArialMT-112"/>
       <use x="244.628906" xlink:href="#ArialMT-47"/>
       <use x="272.412109" xlink:href="#ArialMT-181"/>
       <use x="330.029297" xlink:href="#ArialMT-108"/>
      </g>
     </g>
    </g>
    <g id="xtick_8">
     <g id="line2d_31">
      <g>
       <use style="stroke:#000000;stroke-width:0.8;" x="485.135372" xlink:href="#ma8a642e3fb" y="613.588118"/>
      </g>
     </g>
     <g id="text_31">
      <!-- 16 cp/µl -->
      <g transform="translate(437.77358 674.685764)rotate(-45)scale(0.18 -0.18)">
       <use xlink:href="#ArialMT-49"/>
       <use x="55.615234" xlink:href="#ArialMT-54"/>
       <use x="111.230469" xlink:href="#ArialMT-32"/>
       <use x="139.013672" xlink:href="#ArialMT-99"/>
       <use x="189.013672" xlink:href="#ArialMT-112"/>
       <use x="244.628906" xlink:href="#ArialMT-47"/>
       <use x="272.412109" xlink:href="#ArialMT-181"/>
       <use x="330.029297" xlink:href="#ArialMT-108"/>
      </g>
     </g>
    </g>
    <g id="text_32">
     <!-- 16 min -->
     <g transform="translate(379.435379 704.040544)scale(0.22 -0.22)">
      <use xlink:href="#ArialMT-49"/>
      <use x="55.615234" xlink:href="#ArialMT-54"/>
      <use x="111.230469" xlink:href="#ArialMT-32"/>
      <use x="139.013672" xlink:href="#ArialMT-109"/>
      <use x="222.314453" xlink:href="#ArialMT-105"/>
      <use x="244.53125" xlink:href="#ArialMT-110"/>
     </g>
    </g>
   </g>
   <g id="matplotlib.axis_4">
    <g id="ytick_22">
     <g id="line2d_32">
      <g>
       <use style="stroke:#000000;stroke-width:0.8;" x="312.505546" xlink:href="#m3748e980dc" y="613.588118"/>
      </g>
     </g>
    </g>
    <g id="ytick_23">
     <g id="line2d_33">
      <g>
       <use style="stroke:#000000;stroke-width:0.8;" x="312.505546" xlink:href="#m3748e980dc" y="586.083922"/>
      </g>
     </g>
    </g>
    <g id="ytick_24">
     <g id="line2d_34">
      <g>
       <use style="stroke:#000000;stroke-width:0.8;" x="312.505546" xlink:href="#m3748e980dc" y="558.579726"/>
      </g>
     </g>
    </g>
    <g id="ytick_25">
     <g id="line2d_35">
      <g>
       <use style="stroke:#000000;stroke-width:0.8;" x="312.505546" xlink:href="#m3748e980dc" y="531.07553"/>
      </g>
     </g>
    </g>
    <g id="ytick_26">
     <g id="line2d_36">
      <g>
       <use style="stroke:#000000;stroke-width:0.8;" x="312.505546" xlink:href="#m3748e980dc" y="503.571334"/>
      </g>
     </g>
    </g>
    <g id="ytick_27">
     <g id="line2d_37">
      <g>
       <use style="stroke:#000000;stroke-width:0.8;" x="312.505546" xlink:href="#m3748e980dc" y="476.067137"/>
      </g>
     </g>
    </g>
    <g id="ytick_28">
     <g id="line2d_38">
      <g>
       <use style="stroke:#000000;stroke-width:0.8;" x="312.505546" xlink:href="#m3748e980dc" y="448.562941"/>
      </g>
     </g>
    </g>
    <g id="ytick_29">
     <g id="line2d_39">
      <g>
       <use style="stroke:#000000;stroke-width:0.8;" x="312.505546" xlink:href="#m3748e980dc" y="421.058745"/>
      </g>
     </g>
    </g>
    <g id="ytick_30">
     <g id="line2d_40">
      <g>
       <use style="stroke:#000000;stroke-width:0.8;" x="312.505546" xlink:href="#m3748e980dc" y="393.554549"/>
      </g>
     </g>
    </g>
    <g id="ytick_31">
     <g id="line2d_41">
      <g>
       <use style="stroke:#000000;stroke-width:0.8;" x="312.505546" xlink:href="#m3748e980dc" y="366.050353"/>
      </g>
     </g>
    </g>
    <g id="ytick_32">
     <g id="line2d_42">
      <g>
       <use style="stroke:#000000;stroke-width:0.8;" x="312.505546" xlink:href="#m3748e980dc" y="338.546157"/>
      </g>
     </g>
    </g>
    <g id="ytick_33">
     <g id="line2d_43">
      <g>
       <use style="stroke:#000000;stroke-width:0.8;" x="312.505546" xlink:href="#m3748e980dc" y="311.041961"/>
      </g>
     </g>
    </g>
    <g id="ytick_34">
     <g id="line2d_44">
      <g>
       <use style="stroke:#000000;stroke-width:0.8;" x="312.505546" xlink:href="#m3748e980dc" y="283.537765"/>
      </g>
     </g>
    </g>
    <g id="ytick_35">
     <g id="line2d_45">
      <g>
       <use style="stroke:#000000;stroke-width:0.8;" x="312.505546" xlink:href="#m3748e980dc" y="256.033569"/>
      </g>
     </g>
    </g>
    <g id="ytick_36">
     <g id="line2d_46">
      <g>
       <use style="stroke:#000000;stroke-width:0.8;" x="312.505546" xlink:href="#m3748e980dc" y="228.529373"/>
      </g>
     </g>
    </g>
    <g id="ytick_37">
     <g id="line2d_47">
      <g>
       <use style="stroke:#000000;stroke-width:0.8;" x="312.505546" xlink:href="#m3748e980dc" y="201.025177"/>
      </g>
     </g>
    </g>
    <g id="ytick_38">
     <g id="line2d_48">
      <g>
       <use style="stroke:#000000;stroke-width:0.8;" x="312.505546" xlink:href="#m3748e980dc" y="173.52098"/>
      </g>
     </g>
    </g>
    <g id="ytick_39">
     <g id="line2d_49">
      <g>
       <use style="stroke:#000000;stroke-width:0.8;" x="312.505546" xlink:href="#m3748e980dc" y="146.016784"/>
      </g>
     </g>
    </g>
    <g id="ytick_40">
     <g id="line2d_50">
      <g>
       <use style="stroke:#000000;stroke-width:0.8;" x="312.505546" xlink:href="#m3748e980dc" y="118.512588"/>
      </g>
     </g>
    </g>
    <g id="ytick_41">
     <g id="line2d_51">
      <g>
       <use style="stroke:#000000;stroke-width:0.8;" x="312.505546" xlink:href="#m3748e980dc" y="91.008392"/>
      </g>
     </g>
    </g>
    <g id="ytick_42">
     <g id="line2d_52">
      <g>
       <use style="stroke:#000000;stroke-width:0.8;" x="312.505546" xlink:href="#m3748e980dc" y="63.504196"/>
      </g>
     </g>
    </g>
   </g>
   <g id="line2d_53">
    <path clip-path="url(#p523c3f92e9)" d="M 312.505546 613.588118 
L 512.392713 613.588118 
" style="fill:none;stroke:#000000;stroke-linecap:square;stroke-width:1.5;"/>
   </g>
   <g id="line2d_54">
    <path clip-path="url(#p523c3f92e9)" d="M 312.505546 91.008392 
L 512.392713 91.008392 
" style="fill:none;stroke:#000000;stroke-dasharray:5.55,2.4;stroke-dashoffset:0;stroke-opacity:0.5;stroke-width:1.5;"/>
   </g>
   <g id="patch_16">
    <path d="M 312.505546 613.588118 
L 312.505546 36 
" style="fill:none;stroke:#000000;stroke-linecap:square;stroke-linejoin:miter;stroke-width:0.8;"/>
   </g>
   <g id="patch_17">
    <path d="M 512.392713 613.588118 
L 512.392713 36 
" style="fill:none;stroke:#000000;stroke-linecap:square;stroke-linejoin:miter;stroke-width:0.8;"/>
   </g>
   <g id="patch_18">
    <path d="M 312.505546 613.588118 
L 512.392713 613.588118 
" style="fill:none;stroke:#000000;stroke-linecap:square;stroke-linejoin:miter;stroke-width:0.8;"/>
   </g>
   <g id="patch_19">
    <path d="M 312.505546 36 
L 512.392713 36 
" style="fill:none;stroke:#000000;stroke-linecap:square;stroke-linejoin:miter;stroke-width:0.8;"/>
   </g>
  </g>
  <g id="axes_3">
   <g id="patch_20">
    <path d="M 562.992342 613.588118 
L 762.879508 613.588118 
L 762.879508 36 
L 562.992342 36 
z
" style="fill:#ffffff;"/>
   </g>
   <g id="patch_21">
    <path clip-path="url(#p18f5f666a6)" d="M 572.078122 613.588118 
L 608.421243 613.588118 
L 608.421243 63.504196 
L 572.078122 63.504196 
z
" style="fill:#808080;stroke:#000000;stroke-linejoin:miter;stroke-width:2;"/>
   </g>
   <g id="patch_22">
    <path clip-path="url(#p18f5f666a6)" d="M 620.535617 613.588118 
L 656.878738 613.588118 
L 656.878738 91.008392 
L 620.535617 91.008392 
z
" style="fill:#808080;stroke:#000000;stroke-linejoin:miter;stroke-width:2;"/>
   </g>
   <g id="patch_23">
    <path clip-path="url(#p18f5f666a6)" d="M 668.993112 613.588118 
L 705.336233 613.588118 
L 705.336233 173.52098 
L 668.993112 173.52098 
z
" style="fill:#808080;stroke:#000000;stroke-linejoin:miter;stroke-width:2;"/>
   </g>
   <g id="patch_24">
    <path clip-path="url(#p18f5f666a6)" d="M 717.450607 613.588118 
L 753.793728 613.588118 
L 753.793728 228.529373 
L 717.450607 228.529373 
z
" style="fill:#808080;stroke:#000000;stroke-linejoin:miter;stroke-width:2;"/>
   </g>
   <g id="matplotlib.axis_5">
    <g id="xtick_9">
     <g id="line2d_55">
      <g>
       <use style="stroke:#000000;stroke-width:0.8;" x="590.249683" xlink:href="#ma8a642e3fb" y="613.588118"/>
      </g>
     </g>
     <g id="text_33">
      <!-- 125 cp/µl -->
      <g transform="translate(535.809974 681.763682)rotate(-45)scale(0.18 -0.18)">
       <use xlink:href="#ArialMT-49"/>
       <use x="55.615234" xlink:href="#ArialMT-50"/>
       <use x="111.230469" xlink:href="#ArialMT-53"/>
       <use x="166.845703" xlink:href="#ArialMT-32"/>
       <use x="194.628906" xlink:href="#ArialMT-99"/>
       <use x="244.628906" xlink:href="#ArialMT-112"/>
       <use x="300.244141" xlink:href="#ArialMT-47"/>
       <use x="328.027344" xlink:href="#ArialMT-181"/>
       <use x="385.644531" xlink:href="#ArialMT-108"/>
      </g>
     </g>
    </g>
    <g id="xtick_10">
     <g id="line2d_56">
      <g>
       <use style="stroke:#000000;stroke-width:0.8;" x="638.707178" xlink:href="#ma8a642e3fb" y="613.588118"/>
      </g>
     </g>
     <g id="text_34">
      <!-- 63 cp/µl -->
      <g transform="translate(591.345386 674.685764)rotate(-45)scale(0.18 -0.18)">
       <use xlink:href="#ArialMT-54"/>
       <use x="55.615234" xlink:href="#ArialMT-51"/>
       <use x="111.230469" xlink:href="#ArialMT-32"/>
       <use x="139.013672" xlink:href="#ArialMT-99"/>
       <use x="189.013672" xlink:href="#ArialMT-112"/>
       <use x="244.628906" xlink:href="#ArialMT-47"/>
       <use x="272.412109" xlink:href="#ArialMT-181"/>
       <use x="330.029297" xlink:href="#ArialMT-108"/>
      </g>
     </g>
    </g>
    <g id="xtick_11">
     <g id="line2d_57">
      <g>
       <use style="stroke:#000000;stroke-width:0.8;" x="687.164673" xlink:href="#ma8a642e3fb" y="613.588118"/>
      </g>
     </g>
     <g id="text_35">
      <!-- 31 cp/µl -->
      <g transform="translate(639.802881 674.685764)rotate(-45)scale(0.18 -0.18)">
       <use xlink:href="#ArialMT-51"/>
       <use x="55.615234" xlink:href="#ArialMT-49"/>
       <use x="111.230469" xlink:href="#ArialMT-32"/>
       <use x="139.013672" xlink:href="#ArialMT-99"/>
       <use x="189.013672" xlink:href="#ArialMT-112"/>
       <use x="244.628906" xlink:href="#ArialMT-47"/>
       <use x="272.412109" xlink:href="#ArialMT-181"/>
       <use x="330.029297" xlink:href="#ArialMT-108"/>
      </g>
     </g>
    </g>
    <g id="xtick_12">
     <g id="line2d_58">
      <g>
       <use style="stroke:#000000;stroke-width:0.8;" x="735.622168" xlink:href="#ma8a642e3fb" y="613.588118"/>
      </g>
     </g>
     <g id="text_36">
      <!-- 16 cp/µl -->
      <g transform="translate(688.260376 674.685764)rotate(-45)scale(0.18 -0.18)">
       <use xlink:href="#ArialMT-49"/>
       <use x="55.615234" xlink:href="#ArialMT-54"/>
       <use x="111.230469" xlink:href="#ArialMT-32"/>
       <use x="139.013672" xlink:href="#ArialMT-99"/>
       <use x="189.013672" xlink:href="#ArialMT-112"/>
       <use x="244.628906" xlink:href="#ArialMT-47"/>
       <use x="272.412109" xlink:href="#ArialMT-181"/>
       <use x="330.029297" xlink:href="#ArialMT-108"/>
      </g>
     </g>
    </g>
    <g id="text_37">
     <!-- 30 min -->
     <g transform="translate(629.922175 704.040544)scale(0.22 -0.22)">
      <use xlink:href="#ArialMT-51"/>
      <use x="55.615234" xlink:href="#ArialMT-48"/>
      <use x="111.230469" xlink:href="#ArialMT-32"/>
      <use x="139.013672" xlink:href="#ArialMT-109"/>
      <use x="222.314453" xlink:href="#ArialMT-105"/>
      <use x="244.53125" xlink:href="#ArialMT-110"/>
     </g>
    </g>
   </g>
   <g id="matplotlib.axis_6">
    <g id="ytick_43">
     <g id="line2d_59">
      <g>
       <use style="stroke:#000000;stroke-width:0.8;" x="562.992342" xlink:href="#m3748e980dc" y="613.588118"/>
      </g>
     </g>
    </g>
    <g id="ytick_44">
     <g id="line2d_60">
      <g>
       <use style="stroke:#000000;stroke-width:0.8;" x="562.992342" xlink:href="#m3748e980dc" y="586.083922"/>
      </g>
     </g>
    </g>
    <g id="ytick_45">
     <g id="line2d_61">
      <g>
       <use style="stroke:#000000;stroke-width:0.8;" x="562.992342" xlink:href="#m3748e980dc" y="558.579726"/>
      </g>
     </g>
    </g>
    <g id="ytick_46">
     <g id="line2d_62">
      <g>
       <use style="stroke:#000000;stroke-width:0.8;" x="562.992342" xlink:href="#m3748e980dc" y="531.07553"/>
      </g>
     </g>
    </g>
    <g id="ytick_47">
     <g id="line2d_63">
      <g>
       <use style="stroke:#000000;stroke-width:0.8;" x="562.992342" xlink:href="#m3748e980dc" y="503.571334"/>
      </g>
     </g>
    </g>
    <g id="ytick_48">
     <g id="line2d_64">
      <g>
       <use style="stroke:#000000;stroke-width:0.8;" x="562.992342" xlink:href="#m3748e980dc" y="476.067137"/>
      </g>
     </g>
    </g>
    <g id="ytick_49">
     <g id="line2d_65">
      <g>
       <use style="stroke:#000000;stroke-width:0.8;" x="562.992342" xlink:href="#m3748e980dc" y="448.562941"/>
      </g>
     </g>
    </g>
    <g id="ytick_50">
     <g id="line2d_66">
      <g>
       <use style="stroke:#000000;stroke-width:0.8;" x="562.992342" xlink:href="#m3748e980dc" y="421.058745"/>
      </g>
     </g>
    </g>
    <g id="ytick_51">
     <g id="line2d_67">
      <g>
       <use style="stroke:#000000;stroke-width:0.8;" x="562.992342" xlink:href="#m3748e980dc" y="393.554549"/>
      </g>
     </g>
    </g>
    <g id="ytick_52">
     <g id="line2d_68">
      <g>
       <use style="stroke:#000000;stroke-width:0.8;" x="562.992342" xlink:href="#m3748e980dc" y="366.050353"/>
      </g>
     </g>
    </g>
    <g id="ytick_53">
     <g id="line2d_69">
      <g>
       <use style="stroke:#000000;stroke-width:0.8;" x="562.992342" xlink:href="#m3748e980dc" y="338.546157"/>
      </g>
     </g>
    </g>
    <g id="ytick_54">
     <g id="line2d_70">
      <g>
       <use style="stroke:#000000;stroke-width:0.8;" x="562.992342" xlink:href="#m3748e980dc" y="311.041961"/>
      </g>
     </g>
    </g>
    <g id="ytick_55">
     <g id="line2d_71">
      <g>
       <use style="stroke:#000000;stroke-width:0.8;" x="562.992342" xlink:href="#m3748e980dc" y="283.537765"/>
      </g>
     </g>
    </g>
    <g id="ytick_56">
     <g id="line2d_72">
      <g>
       <use style="stroke:#000000;stroke-width:0.8;" x="562.992342" xlink:href="#m3748e980dc" y="256.033569"/>
      </g>
     </g>
    </g>
    <g id="ytick_57">
     <g id="line2d_73">
      <g>
       <use style="stroke:#000000;stroke-width:0.8;" x="562.992342" xlink:href="#m3748e980dc" y="228.529373"/>
      </g>
     </g>
    </g>
    <g id="ytick_58">
     <g id="line2d_74">
      <g>
       <use style="stroke:#000000;stroke-width:0.8;" x="562.992342" xlink:href="#m3748e980dc" y="201.025177"/>
      </g>
     </g>
    </g>
    <g id="ytick_59">
     <g id="line2d_75">
      <g>
       <use style="stroke:#000000;stroke-width:0.8;" x="562.992342" xlink:href="#m3748e980dc" y="173.52098"/>
      </g>
     </g>
    </g>
    <g id="ytick_60">
     <g id="line2d_76">
      <g>
       <use style="stroke:#000000;stroke-width:0.8;" x="562.992342" xlink:href="#m3748e980dc" y="146.016784"/>
      </g>
     </g>
    </g>
    <g id="ytick_61">
     <g id="line2d_77">
      <g>
       <use style="stroke:#000000;stroke-width:0.8;" x="562.992342" xlink:href="#m3748e980dc" y="118.512588"/>
      </g>
     </g>
    </g>
    <g id="ytick_62">
     <g id="line2d_78">
      <g>
       <use style="stroke:#000000;stroke-width:0.8;" x="562.992342" xlink:href="#m3748e980dc" y="91.008392"/>
      </g>
     </g>
    </g>
    <g id="ytick_63">
     <g id="line2d_79">
      <g>
       <use style="stroke:#000000;stroke-width:0.8;" x="562.992342" xlink:href="#m3748e980dc" y="63.504196"/>
      </g>
     </g>
    </g>
   </g>
   <g id="line2d_80">
    <path clip-path="url(#p18f5f666a6)" d="M 562.992342 613.588118 
L 762.879508 613.588118 
" style="fill:none;stroke:#000000;stroke-linecap:square;stroke-width:1.5;"/>
   </g>
   <g id="line2d_81">
    <path clip-path="url(#p18f5f666a6)" d="M 562.992342 91.008392 
L 762.879508 91.008392 
" style="fill:none;stroke:#000000;stroke-dasharray:5.55,2.4;stroke-dashoffset:0;stroke-opacity:0.5;stroke-width:1.5;"/>
   </g>
   <g id="patch_25">
    <path d="M 562.992342 613.588118 
L 562.992342 36 
" style="fill:none;stroke:#000000;stroke-linecap:square;stroke-linejoin:miter;stroke-width:0.8;"/>
   </g>
   <g id="patch_26">
    <path d="M 762.879508 613.588118 
L 762.879508 36 
" style="fill:none;stroke:#000000;stroke-linecap:square;stroke-linejoin:miter;stroke-width:0.8;"/>
   </g>
   <g id="patch_27">
    <path d="M 562.992342 613.588118 
L 762.879508 613.588118 
" style="fill:none;stroke:#000000;stroke-linecap:square;stroke-linejoin:miter;stroke-width:0.8;"/>
   </g>
   <g id="patch_28">
    <path d="M 562.992342 36 
L 762.879508 36 
" style="fill:none;stroke:#000000;stroke-linecap:square;stroke-linejoin:miter;stroke-width:0.8;"/>
   </g>
  </g>
  <g id="axes_4">
   <g id="patch_29">
    <path d="M 813.479138 613.588118 
L 1013.366304 613.588118 
L 1013.366304 36 
L 813.479138 36 
z
" style="fill:#ffffff;"/>
   </g>
   <g id="patch_30">
    <path clip-path="url(#p2a00c08372)" d="M 822.564918 613.588118 
L 858.908039 613.588118 
L 858.908039 63.504196 
L 822.564918 63.504196 
z
" style="fill:#808080;stroke:#000000;stroke-linejoin:miter;stroke-width:2;"/>
   </g>
   <g id="patch_31">
    <path clip-path="url(#p2a00c08372)" d="M 871.022413 613.588118 
L 907.365534 613.588118 
L 907.365534 63.504196 
L 871.022413 63.504196 
z
" style="fill:#808080;stroke:#000000;stroke-linejoin:miter;stroke-width:2;"/>
   </g>
   <g id="patch_32">
    <path clip-path="url(#p2a00c08372)" d="M 919.479908 613.588118 
L 955.823029 613.588118 
L 955.823029 63.504196 
L 919.479908 63.504196 
z
" style="fill:#808080;stroke:#000000;stroke-linejoin:miter;stroke-width:2;"/>
   </g>
   <g id="patch_33">
    <path clip-path="url(#p2a00c08372)" d="M 967.937403 613.588118 
L 1004.280524 613.588118 
L 1004.280524 201.025177 
L 967.937403 201.025177 
z
" style="fill:#808080;stroke:#000000;stroke-linejoin:miter;stroke-width:2;"/>
   </g>
   <g id="matplotlib.axis_7">
    <g id="xtick_13">
     <g id="line2d_82">
      <g>
       <use style="stroke:#000000;stroke-width:0.8;" x="840.736479" xlink:href="#ma8a642e3fb" y="613.588118"/>
      </g>
     </g>
     <g id="text_38">
      <!-- 125 cp/µl -->
      <g transform="translate(786.296769 681.763682)rotate(-45)scale(0.18 -0.18)">
       <use xlink:href="#ArialMT-49"/>
       <use x="55.615234" xlink:href="#ArialMT-50"/>
       <use x="111.230469" xlink:href="#ArialMT-53"/>
       <use x="166.845703" xlink:href="#ArialMT-32"/>
       <use x="194.628906" xlink:href="#ArialMT-99"/>
       <use x="244.628906" xlink:href="#ArialMT-112"/>
       <use x="300.244141" xlink:href="#ArialMT-47"/>
       <use x="328.027344" xlink:href="#ArialMT-181"/>
       <use x="385.644531" xlink:href="#ArialMT-108"/>
      </g>
     </g>
    </g>
    <g id="xtick_14">
     <g id="line2d_83">
      <g>
       <use style="stroke:#000000;stroke-width:0.8;" x="889.193974" xlink:href="#ma8a642e3fb" y="613.588118"/>
      </g>
     </g>
     <g id="text_39">
      <!-- 63 cp/µl -->
      <g transform="translate(841.832182 674.685764)rotate(-45)scale(0.18 -0.18)">
       <use xlink:href="#ArialMT-54"/>
       <use x="55.615234" xlink:href="#ArialMT-51"/>
       <use x="111.230469" xlink:href="#ArialMT-32"/>
       <use x="139.013672" xlink:href="#ArialMT-99"/>
       <use x="189.013672" xlink:href="#ArialMT-112"/>
       <use x="244.628906" xlink:href="#ArialMT-47"/>
       <use x="272.412109" xlink:href="#ArialMT-181"/>
       <use x="330.029297" xlink:href="#ArialMT-108"/>
      </g>
     </g>
    </g>
    <g id="xtick_15">
     <g id="line2d_84">
      <g>
       <use style="stroke:#000000;stroke-width:0.8;" x="937.651468" xlink:href="#ma8a642e3fb" y="613.588118"/>
      </g>
     </g>
     <g id="text_40">
      <!-- 31 cp/µl -->
      <g transform="translate(890.289677 674.685764)rotate(-45)scale(0.18 -0.18)">
       <use xlink:href="#ArialMT-51"/>
       <use x="55.615234" xlink:href="#ArialMT-49"/>
       <use x="111.230469" xlink:href="#ArialMT-32"/>
       <use x="139.013672" xlink:href="#ArialMT-99"/>
       <use x="189.013672" xlink:href="#ArialMT-112"/>
       <use x="244.628906" xlink:href="#ArialMT-47"/>
       <use x="272.412109" xlink:href="#ArialMT-181"/>
       <use x="330.029297" xlink:href="#ArialMT-108"/>
      </g>
     </g>
    </g>
    <g id="xtick_16">
     <g id="line2d_85">
      <g>
       <use style="stroke:#000000;stroke-width:0.8;" x="986.108963" xlink:href="#ma8a642e3fb" y="613.588118"/>
      </g>
     </g>
     <g id="text_41">
      <!-- 16 cp/µl -->
      <g transform="translate(938.747172 674.685764)rotate(-45)scale(0.18 -0.18)">
       <use xlink:href="#ArialMT-49"/>
       <use x="55.615234" xlink:href="#ArialMT-54"/>
       <use x="111.230469" xlink:href="#ArialMT-32"/>
       <use x="139.013672" xlink:href="#ArialMT-99"/>
       <use x="189.013672" xlink:href="#ArialMT-112"/>
       <use x="244.628906" xlink:href="#ArialMT-47"/>
       <use x="272.412109" xlink:href="#ArialMT-181"/>
       <use x="330.029297" xlink:href="#ArialMT-108"/>
      </g>
     </g>
    </g>
    <g id="text_42">
     <!-- 60 min -->
     <g transform="translate(880.408971 704.040544)scale(0.22 -0.22)">
      <use xlink:href="#ArialMT-54"/>
      <use x="55.615234" xlink:href="#ArialMT-48"/>
      <use x="111.230469" xlink:href="#ArialMT-32"/>
      <use x="139.013672" xlink:href="#ArialMT-109"/>
      <use x="222.314453" xlink:href="#ArialMT-105"/>
      <use x="244.53125" xlink:href="#ArialMT-110"/>
     </g>
    </g>
   </g>
   <g id="matplotlib.axis_8">
    <g id="ytick_64">
     <g id="line2d_86">
      <g>
       <use style="stroke:#000000;stroke-width:0.8;" x="813.479138" xlink:href="#m3748e980dc" y="613.588118"/>
      </g>
     </g>
    </g>
    <g id="ytick_65">
     <g id="line2d_87">
      <g>
       <use style="stroke:#000000;stroke-width:0.8;" x="813.479138" xlink:href="#m3748e980dc" y="586.083922"/>
      </g>
     </g>
    </g>
    <g id="ytick_66">
     <g id="line2d_88">
      <g>
       <use style="stroke:#000000;stroke-width:0.8;" x="813.479138" xlink:href="#m3748e980dc" y="558.579726"/>
      </g>
     </g>
    </g>
    <g id="ytick_67">
     <g id="line2d_89">
      <g>
       <use style="stroke:#000000;stroke-width:0.8;" x="813.479138" xlink:href="#m3748e980dc" y="531.07553"/>
      </g>
     </g>
    </g>
    <g id="ytick_68">
     <g id="line2d_90">
      <g>
       <use style="stroke:#000000;stroke-width:0.8;" x="813.479138" xlink:href="#m3748e980dc" y="503.571334"/>
      </g>
     </g>
    </g>
    <g id="ytick_69">
     <g id="line2d_91">
      <g>
       <use style="stroke:#000000;stroke-width:0.8;" x="813.479138" xlink:href="#m3748e980dc" y="476.067137"/>
      </g>
     </g>
    </g>
    <g id="ytick_70">
     <g id="line2d_92">
      <g>
       <use style="stroke:#000000;stroke-width:0.8;" x="813.479138" xlink:href="#m3748e980dc" y="448.562941"/>
      </g>
     </g>
    </g>
    <g id="ytick_71">
     <g id="line2d_93">
      <g>
       <use style="stroke:#000000;stroke-width:0.8;" x="813.479138" xlink:href="#m3748e980dc" y="421.058745"/>
      </g>
     </g>
    </g>
    <g id="ytick_72">
     <g id="line2d_94">
      <g>
       <use style="stroke:#000000;stroke-width:0.8;" x="813.479138" xlink:href="#m3748e980dc" y="393.554549"/>
      </g>
     </g>
    </g>
    <g id="ytick_73">
     <g id="line2d_95">
      <g>
       <use style="stroke:#000000;stroke-width:0.8;" x="813.479138" xlink:href="#m3748e980dc" y="366.050353"/>
      </g>
     </g>
    </g>
    <g id="ytick_74">
     <g id="line2d_96">
      <g>
       <use style="stroke:#000000;stroke-width:0.8;" x="813.479138" xlink:href="#m3748e980dc" y="338.546157"/>
      </g>
     </g>
    </g>
    <g id="ytick_75">
     <g id="line2d_97">
      <g>
       <use style="stroke:#000000;stroke-width:0.8;" x="813.479138" xlink:href="#m3748e980dc" y="311.041961"/>
      </g>
     </g>
    </g>
    <g id="ytick_76">
     <g id="line2d_98">
      <g>
       <use style="stroke:#000000;stroke-width:0.8;" x="813.479138" xlink:href="#m3748e980dc" y="283.537765"/>
      </g>
     </g>
    </g>
    <g id="ytick_77">
     <g id="line2d_99">
      <g>
       <use style="stroke:#000000;stroke-width:0.8;" x="813.479138" xlink:href="#m3748e980dc" y="256.033569"/>
      </g>
     </g>
    </g>
    <g id="ytick_78">
     <g id="line2d_100">
      <g>
       <use style="stroke:#000000;stroke-width:0.8;" x="813.479138" xlink:href="#m3748e980dc" y="228.529373"/>
      </g>
     </g>
    </g>
    <g id="ytick_79">
     <g id="line2d_101">
      <g>
       <use style="stroke:#000000;stroke-width:0.8;" x="813.479138" xlink:href="#m3748e980dc" y="201.025177"/>
      </g>
     </g>
    </g>
    <g id="ytick_80">
     <g id="line2d_102">
      <g>
       <use style="stroke:#000000;stroke-width:0.8;" x="813.479138" xlink:href="#m3748e980dc" y="173.52098"/>
      </g>
     </g>
    </g>
    <g id="ytick_81">
     <g id="line2d_103">
      <g>
       <use style="stroke:#000000;stroke-width:0.8;" x="813.479138" xlink:href="#m3748e980dc" y="146.016784"/>
      </g>
     </g>
    </g>
    <g id="ytick_82">
     <g id="line2d_104">
      <g>
       <use style="stroke:#000000;stroke-width:0.8;" x="813.479138" xlink:href="#m3748e980dc" y="118.512588"/>
      </g>
     </g>
    </g>
    <g id="ytick_83">
     <g id="line2d_105">
      <g>
       <use style="stroke:#000000;stroke-width:0.8;" x="813.479138" xlink:href="#m3748e980dc" y="91.008392"/>
      </g>
     </g>
    </g>
    <g id="ytick_84">
     <g id="line2d_106">
      <g>
       <use style="stroke:#000000;stroke-width:0.8;" x="813.479138" xlink:href="#m3748e980dc" y="63.504196"/>
      </g>
     </g>
    </g>
   </g>
   <g id="line2d_107">
    <path clip-path="url(#p2a00c08372)" d="M 813.479138 613.588118 
L 1013.366304 613.588118 
" style="fill:none;stroke:#000000;stroke-linecap:square;stroke-width:1.5;"/>
   </g>
   <g id="line2d_108">
    <path clip-path="url(#p2a00c08372)" d="M 813.479138 91.008392 
L 1013.366304 91.008392 
" style="fill:none;stroke:#000000;stroke-dasharray:5.55,2.4;stroke-dashoffset:0;stroke-opacity:0.5;stroke-width:1.5;"/>
   </g>
   <g id="patch_34">
    <path d="M 813.479138 613.588118 
L 813.479138 36 
" style="fill:none;stroke:#000000;stroke-linecap:square;stroke-linejoin:miter;stroke-width:0.8;"/>
   </g>
   <g id="patch_35">
    <path d="M 1013.366304 613.588118 
L 1013.366304 36 
" style="fill:none;stroke:#000000;stroke-linecap:square;stroke-linejoin:miter;stroke-width:0.8;"/>
   </g>
   <g id="patch_36">
    <path d="M 813.479138 613.588118 
L 1013.366304 613.588118 
" style="fill:none;stroke:#000000;stroke-linecap:square;stroke-linejoin:miter;stroke-width:0.8;"/>
   </g>
   <g id="patch_37">
    <path d="M 813.479138 36 
L 1013.366304 36 
" style="fill:none;stroke:#000000;stroke-linecap:square;stroke-linejoin:miter;stroke-width:0.8;"/>
   </g>
   <g id="legend_1">
    <g id="patch_38">
     <path d="M 1021.362919 382.552871 
L 1067.816044 382.552871 
Q 1069.816044 382.552871 1069.816044 380.552871 
L 1069.816044 367.407558 
Q 1069.816044 365.407558 1067.816044 365.407558 
L 1021.362919 365.407558 
Q 1019.362919 365.407558 1019.362919 367.407558 
L 1019.362919 380.552871 
Q 1019.362919 382.552871 1021.362919 382.552871 
z
" style="fill:#ffffff;opacity:0.8;stroke:#cccccc;stroke-linejoin:miter;"/>
    </g>
    <g id="patch_39">
     <path d="M 1023.362919 376.565371 
L 1043.362919 376.565371 
L 1043.362919 369.565371 
L 1023.362919 369.565371 
z
" style="fill:#808080;stroke:#000000;stroke-linejoin:miter;stroke-width:2;"/>
    </g>
    <g id="text_43">
     <!-- 5% -->
     <defs>
      <path d="M 5.8125 54.390625 
Q 5.8125 62.0625 9.671875 67.421875 
Q 13.53125 72.796875 20.84375 72.796875 
Q 27.59375 72.796875 32 67.984375 
Q 36.421875 63.1875 36.421875 53.859375 
Q 36.421875 44.78125 31.953125 39.875 
Q 27.484375 34.96875 20.953125 34.96875 
Q 14.453125 34.96875 10.125 39.796875 
Q 5.8125 44.625 5.8125 54.390625 
z
M 21.09375 66.75 
Q 17.828125 66.75 15.65625 63.90625 
Q 13.484375 61.078125 13.484375 53.515625 
Q 13.484375 46.625 15.671875 43.8125 
Q 17.875 41.015625 21.09375 41.015625 
Q 24.421875 41.015625 26.59375 43.84375 
Q 28.765625 46.6875 28.765625 54.203125 
Q 28.765625 61.140625 26.5625 63.9375 
Q 24.359375 66.75 21.09375 66.75 
z
M 21.140625 -2.640625 
L 60.296875 72.796875 
L 67.4375 72.796875 
L 28.421875 -2.640625 
z
M 52.09375 16.796875 
Q 52.09375 24.515625 55.953125 29.859375 
Q 59.8125 35.203125 67.1875 35.203125 
Q 73.921875 35.203125 78.34375 30.390625 
Q 82.765625 25.59375 82.765625 16.265625 
Q 82.765625 7.171875 78.296875 2.265625 
Q 73.828125 -2.640625 67.234375 -2.640625 
Q 60.75 -2.640625 56.421875 2.21875 
Q 52.09375 7.078125 52.09375 16.796875 
z
M 67.4375 29.15625 
Q 64.109375 29.15625 61.9375 26.3125 
Q 59.765625 23.484375 59.765625 15.921875 
Q 59.765625 9.078125 61.953125 6.25 
Q 64.15625 3.421875 67.390625 3.421875 
Q 70.75 3.421875 72.921875 6.25 
Q 75.09375 9.078125 75.09375 16.609375 
Q 75.09375 23.53125 72.890625 26.34375 
Q 70.703125 29.15625 67.4375 29.15625 
z
" id="ArialMT-37"/>
     </defs>
     <g transform="translate(1051.362919 376.565371)scale(0.1 -0.1)">
      <use xlink:href="#ArialMT-53"/>
      <use x="55.615234" xlink:href="#ArialMT-37"/>
     </g>
    </g>
   </g>
  </g>
  <g id="text_44">
   <!-- Number detected (out of 20) -->
   <g transform="translate(402.436406 30.415313)scale(0.22 -0.22)">
    <use xlink:href="#ArialMT-78"/>
    <use x="72.216797" xlink:href="#ArialMT-117"/>
    <use x="127.832031" xlink:href="#ArialMT-109"/>
    <use x="211.132812" xlink:href="#ArialMT-98"/>
    <use x="266.748047" xlink:href="#ArialMT-101"/>
    <use x="322.363281" xlink:href="#ArialMT-114"/>
    <use x="355.664062" xlink:href="#ArialMT-32"/>
    <use x="383.447266" xlink:href="#ArialMT-100"/>
    <use x="439.0625" xlink:href="#ArialMT-101"/>
    <use x="494.677734" xlink:href="#ArialMT-116"/>
    <use x="522.460938" xlink:href="#ArialMT-101"/>
    <use x="578.076172" xlink:href="#ArialMT-99"/>
    <use x="628.076172" xlink:href="#ArialMT-116"/>
    <use x="655.859375" xlink:href="#ArialMT-101"/>
    <use x="711.474609" xlink:href="#ArialMT-100"/>
    <use x="767.089844" xlink:href="#ArialMT-32"/>
    <use x="794.873047" xlink:href="#ArialMT-40"/>
    <use x="828.173828" xlink:href="#ArialMT-111"/>
    <use x="883.789062" xlink:href="#ArialMT-117"/>
    <use x="939.404297" xlink:href="#ArialMT-116"/>
    <use x="967.1875" xlink:href="#ArialMT-32"/>
    <use x="994.970703" xlink:href="#ArialMT-111"/>
    <use x="1050.585938" xlink:href="#ArialMT-102"/>
    <use x="1078.369141" xlink:href="#ArialMT-32"/>
    <use x="1106.152344" xlink:href="#ArialMT-50"/>
    <use x="1161.767578" xlink:href="#ArialMT-48"/>
    <use x="1217.382812" xlink:href="#ArialMT-41"/>
   </g>
  </g>
 </g>
 <defs>
  <clipPath id="p0afc58953e">
   <rect height="577.588118" width="199.887167" x="62.01875" y="36"/>
  </clipPath>
  <clipPath id="p523c3f92e9">
   <rect height="577.588118" width="199.887167" x="312.505546" y="36"/>
  </clipPath>
  <clipPath id="p18f5f666a6">
   <rect height="577.588118" width="199.887167" x="562.992342" y="36"/>
  </clipPath>
  <clipPath id="p2a00c08372">
   <rect height="577.588118" width="199.887167" x="813.479138" y="36"/>
  </clipPath>
 </defs>
</svg>
